<?xml version="1.0" encoding="UTF-8" standalone="no"?>
<svg width="100px" height="100px" viewBox="0 0 100 100" version="1.1" xmlns="http://www.w3.org/2000/svg" xmlns:xlink="http://www.w3.org/1999/xlink" xmlns:sketch="http://www.bohemiancoding.com/sketch/ns">
    <!-- Generator: Sketch 3.3.3 (12081) - http://www.bohemiancoding.com/sketch -->
    <title>1448818215_notebook</title>
    <desc>Created with Sketch.</desc>
    <defs></defs>
    <g id="Page-1" stroke="none" stroke-width="1" fill="none" fill-rule="evenodd" sketch:type="MSPage">
        <g id="1448818215_notebook" sketch:type="MSLayerGroup">
            <g sketch:type="MSShapeGroup">
                <path d="M50,0 C77.614,0 100,22.386 100,50 C100,77.614 77.614,100 50,100 C22.386,100 0,77.614 0,50 C0,22.386 22.386,0 50,0 L50,0 Z" id="Shape" fill="#A8E7F6"></path>
                <path d="M76,26.999 L28,26.999 C24.134,26.999 21,30.135 21,33.999 L21,90.718 C29.181,96.555 39.185,100 50,100 C62.649,100 74.193,95.293 83,87.547 L83,33.999 C83,30.135 79.866,26.999 76,26.999 L76,26.999 Z" id="Shape" fill="#2B414D"></path>
                <path d="M26,26.999 C22.134,26.999 19,30.135 19,33.999 L19,89.215 C27.522,95.961 38.286,100 50,100 C61.714,100 72.478,95.961 81,89.215 L81,33.999 C81,30.135 77.866,26.999 74,26.999 L26,26.999 Z" id="Shape" fill="#999999"></path>
                <path d="M70,24.999 L24,24.999 C20.134,24.999 17,28.134 17,31.999 L17,87.546 C25.807,95.292 37.351,99.999 50,99.999 C59.949,99.999 69.211,97.081 77,92.072 L77,31.999 C77,28.134 73.866,24.999 70,24.999 L70,24.999 Z" id="Shape" fill="#324D5B"></path>
                <path d="M34.0119552,62.4102897 C35.9473941,65.8638813 39.6782613,68.0107086 45.9718692,68.6064394 C45.074155,69.2762934 43.9952508,70.5473688 43.8456318,72.0161061 C42.7159395,72.7340029 40.444201,72.9714717 38.6789709,72.4237837 C36.20408,71.6564714 35.2569503,66.842582 31.5521634,67.5289078 C30.7505349,67.6757815 30.9097625,68.1960165 31.6029516,68.639383 C32.7326439,69.3572798 33.7950763,70.2563667 34.6145493,72.1684705 C35.2445964,73.6372077 36.5678326,76.2603451 40.7544202,76.2603451 C42.4153288,76.2603451 43.5793374,76.0640559 43.5793374,76.0640559 C43.5793374,76.0640559 43.6109084,79.8127676 43.6109084,81.2705237 C43.6109084,82.952022 41.3021083,83.4255868 41.3021083,84.2340786 C41.3021083,84.5539065 42.0666752,84.5841048 42.6802505,84.5841048 C43.8936746,84.5841048 46.417981,83.5889323 46.417981,81.8415468 C46.417981,80.4537959 46.4413161,75.7881529 46.4413161,74.9700525 C46.4413161,73.1856053 47.4145261,72.6200729 47.4145261,72.6200729 C47.4145261,72.6200729 47.5353195,82.1462754 47.182548,83.4255868 C46.7680072,84.9272677 46.019912,84.7145067 46.019912,85.3843607 C46.019912,86.3809058 49.0589628,85.6300654 50.0664892,83.440686 C50.8447827,81.7399705 50.504365,72.39084 50.504365,72.39084 L51.3348193,72.3743682 C51.3348193,72.3743682 51.3814895,76.6529235 51.3526638,78.6089521 C51.3238381,80.634986 51.1852003,83.196354 52.4096056,84.4042874 C53.2139794,85.1990528 55.8192723,86.5922942 55.8192723,85.3184735 C55.8192723,84.5786142 54.3917146,83.9705295 54.3917146,81.9678307 L54.3917146,72.7504748 C55.5323881,72.7504748 55.3608066,75.7812897 55.3608066,75.7812897 L55.4445384,81.4132795 C55.4445384,81.4132795 55.1919705,83.464021 57.7025504,84.3219283 C58.5879107,84.6280297 60.48217,84.7103888 60.5713924,84.1983897 C60.6606147,83.6863906 58.2900453,82.9245689 58.2680829,81.3377836 C58.2543564,80.3673189 58.3120077,79.8017864 58.3120077,75.5904911 C58.3120077,71.3791958 57.7368667,69.8226088 55.7314226,68.5817316 C61.9193363,67.9571751 65.7504071,66.4527489 67.6158408,62.4240163 C67.7613418,62.4281342 68.3776624,60.5421108 68.296676,60.5421108 C68.7153347,59.0212128 68.9418223,57.2216664 68.9857471,55.091311 C68.9747659,49.3124475 66.16083,47.2685692 65.6213779,46.3090857 C66.4175158,41.9344448 65.486858,39.9440999 65.0558454,39.2605193 C63.4608241,38.7032228 59.50896,40.6949403 57.3484063,42.0977903 C53.8289274,41.0861461 46.38641,41.1836043 43.5958092,42.3585942 C38.4469928,38.7361664 35.7222792,39.2907177 35.7222792,39.2907177 C35.7222792,39.2907177 33.9611671,42.3915378 35.2569503,46.9295242 C33.5630981,49.0516437 32.3002586,50.5533246 32.3002586,54.5326418 C32.3002586,56.7755546 32.5692983,58.7823714 33.1746377,60.5338749 C33.1005145,60.5338749 33.9872475,62.4102897 34.0119552,62.4102897 Z" id="Path" fill="#FFFFFF"></path>
                <path d="M64,24 L58,24 C57.447,24 57,24.447 57,25 L57,99.502 C59.743,99.117 62.418,98.519 65,97.708 L65,25 C65,24.447 64.553,24 64,24 L64,24 Z M64,24 L58,24 C57.447,24 57,24.447 57,25 L57,99.502 C59.743,99.117 62.418,98.519 65,97.708 L65,25 C65,24.447 64.553,24 64,24 L64,24 Z" id="Shape" fill="#E4E7E7"></path>
                <path d="M27,25 L23.98,25 C20.124,25.011 17,28.14 17,31.999 L17,87.546 C20.029,90.211 23.389,92.505 27,94.383 L27,25 L27,25 Z" id="Shape" fill="#2B414D"></path>
                <path d="M25,93.294 C25.658,93.675 26.324,94.041 27,94.392 L27,25 L25,25 L25,93.294 L25,93.294 Z" id="Shape" fill="#41545F"></path>
            </g>
        </g>
    </g>
</svg>