<?xml version="1.0" encoding="UTF-8" standalone="no"?>
<svg width="100px" height="100px" viewBox="0 0 100 100" version="1.1" xmlns="http://www.w3.org/2000/svg" xmlns:xlink="http://www.w3.org/1999/xlink" xmlns:sketch="http://www.bohemiancoding.com/sketch/ns">
    <!-- Generator: Sketch 3.3.3 (12081) - http://www.bohemiancoding.com/sketch -->
    <title>1448501267_laptop + Rectangle 1 + Group</title>
    <desc>Created with Sketch.</desc>
    <defs></defs>
    <g id="Page-1" stroke="none" stroke-width="1" fill="none" fill-rule="evenodd" sketch:type="MSPage">
        <g id="1448501267_laptop-+-Rectangle-1-+-Group" sketch:type="MSLayerGroup">
            <g id="1448501267_laptop" sketch:type="MSShapeGroup">
                <path d="M50,0 C77.614,0 100,22.385 100,50 C100,77.613 77.614,100 50,100 C22.386,100 0,77.613 0,50 C0,22.385 22.386,0 50,0 L50,0 Z" id="Shape" fill="#EFC75E"></path>
                <path d="M4.624,70.998 L24,70.998 L24,27.998 L0.049,51.949 C0.31,58.734 1.921,65.168 4.624,70.998 L4.624,70.998 Z" id="Shape" fill="#D7B354"></path>
                <path d="M50,100 C67.665,100 83.179,90.83 92.073,77 L7.927,77 C16.821,90.83 32.335,100 50,100 Z" id="Shape" fill="#923604"></path>
                <path d="M92.073,77 L7.927,77 C8.585,78.023 9.27,79.029 10,80 L90.001,80 C90.729,79.029 91.415,78.023 92.073,77 L92.073,77 Z" id="Shape" fill="#7B2B00"></path>
                <path d="M60.821,92.377 C62.311,91.504 62.993,91.106 62.507,89.129 C61.601,85.44 62.834,80.326 63.893,76.996 L61.854,76.996 C60.776,80.601 59.555,86.221 61.066,88.228 C61.346,88.597 61.27,89.126 60.894,89.404 C60.518,89.682 59.987,89.605 59.706,89.234 C57.724,86.601 59.037,80.58 60.081,76.996 L59.206,76.996 C58.46,79.461 57.385,83.748 56.91,89.203 C56.339,95.746 55.645,98.748 52.528,99.992 C53.84,99.926 55.134,99.795 56.418,99.629 C56.671,94.818 59.059,93.406 60.821,92.377 L60.821,92.377 Z M67.152,76.996 L65.681,76.996 C64.653,80.121 63.302,85.264 64.155,88.73 C64.939,91.918 63.211,92.931 61.683,93.824 C60.068,94.767 58.403,95.744 58.125,99.385 C58.927,99.252 59.722,99.102 60.51,98.934 C60.708,97.979 61.087,97.108 61.696,96.379 C63.373,94.379 65.682,93.941 68.033,95.18 C68.504,95.428 68.968,95.748 69.418,96.121 C70.074,95.842 70.72,95.545 71.361,95.238 C70.709,94.394 69.985,93.547 69.19,92.697 C64.139,87.299 65.454,80.98 67.152,76.996 L67.152,76.996 Z M63.002,97.453 C62.745,97.76 62.553,98.113 62.401,98.494 C64.161,98.043 65.879,97.49 67.557,96.857 L67.237,96.666 C65.592,95.799 64.167,96.064 63.002,97.453 L63.002,97.453 Z M87.739,82.715 C88.363,81.99 88.968,81.25 89.55,80.492 C89.695,79.377 89.885,78.224 90.172,76.996 L88.282,76.996 C88.313,78.467 88.229,80.535 87.739,82.715 L87.739,82.715 Z M55.221,89.059 C55.682,83.756 56.674,79.588 57.433,76.997 L55.197,76.997 C54.808,80.159 53.39,85.821 48.228,88.669 C44.471,90.741 43.161,94.181 43.811,96.511 C44.283,98.202 45.733,99.134 47.79,99.072 C53.687,98.889 54.451,97.859 55.221,89.059 L55.221,89.059 Z M85.467,76.996 C85.557,77.672 85.615,78.406 85.615,79.182 C85.615,82.705 84.416,87.018 79.47,89.86 C76.39,91.628 74.161,90.94 72.836,90.049 C70.323,88.363 68.912,84.35 69.478,80.502 C69.676,79.158 70.106,77.982 70.713,76.996 L68.963,76.996 C67.298,80.486 65.669,86.463 70.434,91.555 C71.349,92.534 72.153,93.504 72.889,94.469 C77.323,92.166 81.368,89.221 84.903,85.748 C86.403,82.678 86.616,79.131 86.574,76.996 L85.467,76.996 L85.467,76.996 Z M37.837,76.996 L34.899,76.996 C33.714,77.51 32.121,77.92 29.971,77.99 C24.226,78.185 20.328,78.967 20.29,78.972 C19.831,79.066 19.383,78.773 19.288,78.318 C19.197,77.859 19.489,77.42 19.949,77.326 C20.015,77.314 20.725,77.172 21.939,76.996 L17.791,76.996 C17.295,80.144 15.718,82.516 13.323,83.92 C13.569,84.188 13.823,84.449 14.075,84.713 L14.216,84.617 C17.893,82.127 22.058,79.305 27.975,79.305 C32.898,79.305 35.954,78.215 37.837,76.996 L37.837,76.996 Z M91.915,76.996 L91.872,77.197 L92,76.996 L91.915,76.996 L91.915,76.996 Z M42.176,96.957 C41.349,93.992 42.881,89.691 47.404,87.197 C51.756,84.797 53.08,79.873 53.478,76.996 L52.41,76.996 C51.632,82.121 48.486,84.539 45.669,86.701 C42.117,89.428 39.047,91.773 39.819,98.824 L39.85,99.017 C41.227,99.302 42.627,99.519 44.042,99.689 C43.152,99.039 42.5,98.119 42.176,96.957 L42.176,96.957 Z M44.629,85.373 C47.363,83.273 49.963,81.269 50.691,76.996 L48.494,76.996 C47.657,79.93 44.973,84.535 36.475,87.139 C31.513,88.659 27.167,90.639 23.988,92.717 C24.37,92.951 24.76,93.172 25.149,93.397 C26.59,92.926 28.162,92.803 29.58,93.295 C30.771,93.707 32.23,94.697 32.891,97.033 C34.585,97.654 36.327,98.176 38.102,98.611 C37.398,90.947 41.067,88.105 44.629,85.373 L44.629,85.373 Z M16.073,76.996 L13.244,76.996 C13.414,77.584 13.308,78.225 12.913,78.824 C12.462,79.508 11.613,80.142 10.5,80.558 C11.045,81.267 11.608,81.958 12.189,82.634 C14.878,81.182 15.776,78.584 16.073,76.996 L16.073,76.996 Z M29.02,94.881 C28.544,94.717 28.026,94.654 27.494,94.668 C28.533,95.195 29.586,95.699 30.664,96.154 C30.254,95.547 29.706,95.119 29.02,94.881 L29.02,94.881 Z M11.494,77.904 C11.708,77.58 11.617,77.431 11.584,77.375 C11.512,77.256 11.357,77.123 11.103,76.996 L7.997,76.996 C8.461,77.721 8.941,78.434 9.441,79.131 C10.466,78.842 11.2,78.35 11.494,77.904 L11.494,77.904 Z M73.969,85.414 C74.167,85.648 74.771,86.361 76.535,85.57 C79.825,84.093 80.973,80.351 79.982,77.787 C79.869,77.494 79.729,77.234 79.574,76.996 L77.124,76.996 C78.495,77.867 78.918,79.019 79.034,79.723 C79.264,81.094 78.686,82.58 77.598,83.409 C77.227,83.69 76.694,83.624 76.409,83.255 C76.123,82.888 76.193,82.36 76.564,82.077 C77.162,81.622 77.486,80.765 77.36,79.995 C77.208,79.077 76.472,78.368 75.234,77.948 C74.931,77.846 74.604,78.042 74.263,78.536 C73.113,80.195 72.75,83.973 73.969,85.414 L73.969,85.414 Z M46.72,76.996 L44.711,76.996 C43.263,79.383 40.193,82.654 33.993,83.574 C29.586,84.226 23.945,86.642 19.693,89.75 C20.584,90.434 21.495,91.09 22.431,91.715 C26.245,89.102 31.398,86.936 35.974,85.533 C43.311,83.285 45.848,79.518 46.72,76.996 L46.72,76.996 Z M73.788,88.658 C75.132,89.558 76.757,89.474 78.619,88.404 C84.006,85.31 84.294,80.258 83.794,76.996 L81.484,76.996 L81.566,77.185 C82.829,80.453 81.53,85.175 77.233,87.101 C74.677,88.247 73.276,87.21 72.668,86.492 C70.931,84.435 71.331,79.797 72.865,77.584 C73.021,77.357 73.19,77.168 73.366,76.996 L72.827,76.996 C71.973,77.898 71.388,79.182 71.157,80.746 C70.689,83.93 71.818,87.336 73.788,88.658 L73.788,88.658 Z M42.67,76.996 L40.505,76.996 C38.635,78.871 34.975,80.986 27.975,80.986 C22.639,80.986 18.731,83.595 15.285,85.929 C16.271,86.89 17.291,87.816 18.353,88.691 C22.905,85.273 29.005,82.613 33.743,81.91 C38.553,81.195 41.225,78.932 42.67,76.996 L42.67,76.996 Z" id="Shape" fill="#9B481A"></path>
                <path d="M7.927,76.998 L92.073,76.998 C93.304,75.084 94.41,73.08 95.375,70.998 L4.625,70.998 C5.59,73.08 6.695,75.084 7.927,76.998 L7.927,76.998 Z" id="Shape" fill="#A34A1B"></path>
                <path d="M85,67 L85,68 C85,69.656 83.657,71 82,71 L18,71 C16.343,71 15,69.656 15,68 L15,67 L85,67 L85,67 Z" id="Shape" fill="#F3F3F3"></path>
                <path d="M45.5,66 L54.5,66 C55.328,66 56,66.672 56,67.5 C56,68.328 55.328,69 54.5,69 L45.5,69 C44.672,69 44,68.328 44,67.5 C44,66.672 44.672,66 45.5,66 L45.5,66 Z" id="Shape" fill="#D5D5D5"></path>
                <path d="M24,28 L76,28 C77.104,28 78,28.895 78,30 L78,67 L22,67 L22,30 C22,28.895 22.896,28 24,28 L24,28 Z" id="Shape" fill="#36434F"></path>
                <path d="M25,31 L75,31 L75,64 L25,64 L25,31 L25,31 Z" id="Shape" fill="#465765"></path>
                <g id="Group" transform="translate(7.000000, 77.000000)" fill="#88411A">
                    <path d="M60.83,3 L62.577,3 C62.801,1.867 63.183,0.857 63.712,0 L61.963,0 C61.55,0.863 61.141,1.881 60.83,3 L60.83,3 Z M68.234,0.947 C67.931,0.845 67.604,1.041 67.263,1.535 C66.993,1.924 66.772,2.435 66.599,3 L70.36,3 L70.36,2.994 C70.208,2.076 69.473,1.367 68.234,0.947 L68.234,0.947 Z M64.316,3 L64.845,3 C65.074,2.072 65.42,1.225 65.865,0.584 C66.02,0.359 66.188,0.17 66.363,0 L65.825,0 C65.114,0.752 64.604,1.777 64.316,3 L64.316,3 Z M74.566,0.186 C74.899,1.047 75.048,2.012 75.017,3 L76.933,3 C77.002,1.918 76.93,0.891 76.793,0 L74.484,0 L74.566,0.186 L74.566,0.186 Z M72.034,2.723 L72.06,3 L73.31,3 C73.346,2.223 73.244,1.463 72.982,0.787 C72.869,0.496 72.73,0.236 72.576,0 L70.128,0 C71.496,0.871 71.918,2.02 72.034,2.723 L72.034,2.723 Z M2.441,2.131 C3.465,1.842 4.2,1.35 4.494,0.904 C4.708,0.58 4.617,0.431 4.584,0.375 C4.512,0.258 4.358,0.125 4.107,0 L0.999,0 C1.462,0.723 1.942,1.434 2.441,2.131 L2.441,2.131 Z M35.667,0 L33.502,0 C32.436,1.068 30.784,2.211 28.269,3 L32.307,3 C33.835,2.084 34.92,1 35.667,0 L35.667,0 Z M9.073,0 L6.245,0 C6.413,0.586 6.308,1.227 5.913,1.824 C5.631,2.25 5.179,2.652 4.62,3 L7.94,3 C8.59,1.928 8.917,0.828 9.073,0 L9.073,0 Z M30.832,0 L27.891,0 C26.706,0.512 25.117,0.92 22.971,0.99 C17.226,1.185 13.328,1.967 13.29,1.972 C12.831,2.066 12.383,1.773 12.288,1.318 C12.197,0.859 12.489,0.42 12.949,0.326 C13.015,0.314 13.719,0.174 14.92,0 L10.791,0 C10.617,1.1 10.305,2.098 9.878,3 L16.038,3 C17.547,2.568 19.179,2.305 20.975,2.305 C25.895,2.305 28.948,1.217 30.832,0 L30.832,0 Z M54.062,3 L56.052,3 C56.316,1.914 56.609,0.891 56.892,0 L54.853,0 C54.583,0.902 54.304,1.932 54.062,3 L54.062,3 Z M79.446,3 C79.565,1.863 79.591,0.824 79.574,0 L78.467,0 C78.557,0.674 78.615,1.406 78.615,2.182 C78.615,2.45 78.605,2.723 78.591,3 L79.446,3 L79.446,3 Z M83.171,0 L81.282,0 C81.3,0.834 81.269,1.871 81.16,3 L82.624,3 C82.76,2.037 82.926,1.049 83.171,0 L83.171,0 Z M35.183,3 L38.038,3 C38.892,1.926 39.411,0.885 39.719,0 L37.709,0 C37.145,0.93 36.329,1.992 35.183,3 L35.183,3 Z M84.914,0 L84.872,0.197 L84.998,0 L84.914,0 L84.914,0 Z M40.124,3 L42.717,3 C43.153,2.131 43.494,1.152 43.691,0 L41.494,0 C41.241,0.881 40.817,1.916 40.124,3 L40.124,3 Z M47.6,3 L49.651,3 C49.919,1.852 50.188,0.836 50.432,0 L48.197,0 C48.091,0.852 47.907,1.889 47.6,3 L47.6,3 Z M51.399,3 L52.314,3 C52.55,1.91 52.823,0.881 53.08,0 L52.205,0 C51.961,0.807 51.682,1.826 51.399,3 L51.399,3 Z M44.577,3 L45.814,3 C46.153,1.898 46.358,0.857 46.477,0 L45.409,0 C45.237,1.123 44.948,2.109 44.577,3 L44.577,3 Z M57.807,3 L59.139,3 C59.414,1.908 59.771,0.893 60.152,0 L58.681,0 C58.395,0.867 58.088,1.898 57.807,3 L57.807,3 Z" id="Shape"></path>
                </g>
                <g id="Group" transform="translate(4.000000, 70.000000)" fill="#AC5C32">
                    <path d="M33.215,1 L29.65,1 C28.235,1.781 26.56,2.504 24.551,3.115 C20.932,4.213 17.636,5.553 14.877,6.996 L27.343,6.996 C28.624,4.498 30.708,2.91 32.754,1.355 L33.215,1 L33.215,1 Z M43.41,5.031 C43.536,3.597 43.702,2.256 43.891,1 L40.447,1 C39.447,2.396 38.131,3.68 36.375,4.639 C35.148,5.309 34.186,6.123 33.461,6.996 L43.218,6.996 C43.283,6.383 43.348,5.74 43.41,5.031 L43.41,5.031 Z M50.741,5.1 C50.432,3.856 50.384,2.446 50.477,1 L48.585,1 C48.566,2.348 48.756,3.498 49.29,4.201 C49.571,4.572 49.494,5.097 49.116,5.375 C48.738,5.65 48.204,5.574 47.922,5.203 C47.153,4.191 46.881,2.68 46.891,1 L45.619,1 C45.418,2.299 45.24,3.688 45.109,5.174 C45.052,5.819 44.994,6.418 44.932,6.996 L50.702,6.996 C50.932,6.559 50.963,5.996 50.741,5.1 L50.741,5.1 Z M24.047,1.514 C24.583,1.352 25.087,1.178 25.573,1 L16.625,1 C12.85,2.379 8.945,4.531 6.034,6.996 L11.476,6.996 C15.179,4.697 19.852,2.787 24.047,1.514 L24.047,1.514 Z M0.83,1.479 L1.561,1 L0.612,1 L0.83,1.479 L0.83,1.479 Z M35.545,3.174 C36.63,2.58 37.526,1.834 38.27,1 L35.917,1 C35.218,1.6 34.499,2.146 33.799,2.68 C32.05,4.008 30.42,5.252 29.299,6.996 L31.385,6.996 C32.281,5.561 33.648,4.209 35.545,3.174 L35.545,3.174 Z M12.402,1 L4.602,1 C4.097,1.328 3.603,1.66 3.119,1.984 C2.607,2.328 2.101,2.658 1.595,2.984 C2.274,4.285 3.009,5.55 3.798,6.781 C6.104,4.578 9.176,2.566 12.402,1 L12.402,1 Z M77.706,1 L75.443,1 C74.886,2.496 74.096,3.965 72.968,5.248 C72.531,5.746 72.171,6.348 71.854,6.996 L78.716,6.996 C78.156,5.221 77.782,3.242 77.706,1 L77.706,1 Z M89.615,4.393 C90.097,3.541 90.546,2.666 90.977,1.782 C90.951,1.52 90.939,1.259 90.939,1.001 L88.835,1.001 C88.902,2.035 89.147,3.18 89.615,4.393 L89.615,4.393 Z M85.265,6.996 L88.052,6.996 L88.53,6.201 C87.619,4.336 87.193,2.576 87.11,1 L83.53,1 C83.633,2.895 84.266,4.98 85.265,6.996 L85.265,6.996 Z M56.129,6.996 C54.756,5.023 54.114,2.978 53.943,1 L52.188,1 C52.093,2.322 52.126,3.6 52.399,4.699 C52.631,5.638 52.64,6.383 52.503,6.996 L56.129,6.996 L56.129,6.996 Z M81.797,1 L79.395,1 C79.473,3.262 79.877,5.238 80.485,6.996 L83.337,6.996 C82.429,4.988 81.877,2.932 81.797,1 L81.797,1 Z M70.002,6.996 C70.438,5.91 70.987,4.939 71.677,4.154 C72.511,3.203 73.134,2.121 73.606,1 L72.634,1 C71.698,2.779 70.188,4.473 67.808,5.826 C64.708,7.59 62.467,6.902 61.133,6.015 C59.613,5.003 58.505,3.148 57.978,0.999 L55.627,0.999 C55.842,2.987 56.61,5.046 58.27,6.995 L70.002,6.995 L70.002,6.996 Z M60.963,2.471 C60.62,2.069 60.362,1.563 60.178,1 L59.744,1 C60.199,2.572 61.014,3.912 62.09,4.629 C63.443,5.527 65.077,5.443 66.951,4.377 C68.656,3.404 69.852,2.24 70.677,1 L68.393,1 C67.659,1.838 66.721,2.559 65.557,3.078 C62.985,4.221 61.575,3.188 60.963,2.471 L60.963,2.471 Z M64.854,1.551 C65.205,1.395 65.517,1.201 65.819,1 L62.034,1 C62.11,1.135 62.179,1.283 62.273,1.395 C62.472,1.629 63.078,2.34 64.854,1.551 L64.854,1.551 Z" id="Shape"></path>
                </g>
            </g>
            <rect id="Rectangle-1" fill="#FFFFFF" sketch:type="MSShapeGroup" x="42" y="39" width="18" height="17"></rect>
            <g id="Group" transform="translate(35.000000, 32.000000)" sketch:type="MSShapeGroup">
                <path d="M8.88447814,15.6733881 C8.88447814,11.9454801 11.8714675,8.92318529 15.553049,8.92318529 C15.9624927,8.92318529 16.4314032,8.97400918 16.8203747,9.04555739 L29.2421172,9.11710559 C26.8132386,3.93356167 21.598193,0.346776256 15.553049,0.346776256 C10.2819485,0.346776256 5.64061155,3.07597011 2.9304841,7.21244309 L9.25443979,17.890889 C9.01657248,17.1961313 8.88447814,16.4500562 8.88447814,15.6733881" id="Fill-42" fill="#F05929"></path>
                <path d="M15.553049,22.4245778 C12.6381996,22.4245778 10.16204,20.5287972 9.25443979,17.890889 L2.9304841,7.21244309 C1.3409651,9.63718701 0.414842406,12.5450046 0.414842406,15.6733881 C0.414842406,23.7652431 6.60962835,30.3925804 14.4607116,30.9595383 L20.6930299,19.9766424 C19.4685982,21.4712597 17.6207397,22.4245778 15.553049,22.4245778" id="Fill-43" fill="#62C19B"></path>
                <path d="M30.6932052,15.6733881 C30.6932052,13.3340086 30.1775011,11.1021981 29.250891,9.11809246 L16.8067266,9.048518 L17.0168102,9.08897974 C19.994051,9.76350659 22.2216198,12.4532256 22.2216198,15.6733881 C22.2216198,17.3101149 21.6479111,18.8086797 20.6930299,19.9766424 L14.4607116,30.9595383 C14.8218995,30.9856904 15.1869868,31 15.553049,31 C23.9154494,31 30.6932052,24.1368003 30.6932052,15.6733881" id="Fill-44" fill="#F3CF11"></path>
                <path d="M10.4652233,15.6733881 C10.4652233,12.8282368 12.7425103,10.5229044 15.553049,10.5229044 C18.364075,10.5229044 20.6423369,12.8282368 20.6423369,15.6733881 C20.6423369,18.5185394 18.364075,20.8248587 15.553049,20.8248587 C12.7425103,20.8248587 10.4652233,18.5185394 10.4652233,15.6733881" id="Fill-45" fill="#4E69B0"></path>
            </g>
        </g>
    </g>
</svg>