<?xml version="1.0" encoding="UTF-8" standalone="no"?>
<svg width="101px" height="100px" viewBox="0 0 101 100" version="1.1" xmlns="http://www.w3.org/2000/svg" xmlns:xlink="http://www.w3.org/1999/xlink" xmlns:sketch="http://www.bohemiancoding.com/sketch/ns">
    <!-- Generator: Sketch 3.3.3 (12081) - http://www.bohemiancoding.com/sketch -->
    <title>1448501264_pencil + Fill 21 + Fill 22 + Fill 23</title>
    <desc>Created with Sketch.</desc>
    <defs></defs>
    <g id="Page-1" stroke="none" stroke-width="1" fill="none" fill-rule="evenodd" sketch:type="MSPage">
        <g id="1448501264_pencil-+-Fill-21-+-Fill-22-+-Fill-23" sketch:type="MSLayerGroup">
            <g id="1448501264_pencil" sketch:type="MSShapeGroup">
                <path d="M50.147,0 C22.533,0 0.147,22.386 0.147,50 C0.147,77.613 22.533,100 50.147,100 C77.761,100 100.147,77.613 100.147,50 C100.147,22.385 77.762,0 50.147,0 L50.147,0 Z" id="Shape" fill="#3DB39E"></path>
                <path d="M93.141,24.477 C88.994,17.505 83.203,11.627 76.296,7.381 C62.364,21.313 38.501,45.176 38.045,45.631 C36.688,46.988 32.344,66.926 33.282,67.864 C34.243,68.826 53.697,63.921 55.015,62.601 L93.141,24.477 L93.141,24.477 Z" id="Shape" fill="#BF392B"></path>
                <path d="M46.521,54.107 C45.525,53.111 45.397,48.74 44.393,47.737 C43.39,46.732 38.049,45.632 38.045,45.631 C36.742,46.934 32.689,65.355 33.197,67.653 L33.492,67.949 C35.774,68.437 53.749,63.868 55.015,62.601 C55.015,62.601 53.869,57.212 52.888,56.232 C51.907,55.25 47.519,55.104 46.521,54.107 L46.521,54.107 Z" id="Shape" fill="#FFCABA"></path>
                <path d="M33.171,67.506 L33.197,67.652 L33.493,67.949 C35.779,68.436 53.749,63.868 55.015,62.601 C55.015,62.601 53.913,57.257 52.91,56.252 C36.191,65.763 33.58,67.268 33.171,67.506 L33.171,67.506 Z" id="Shape" fill="#E5B5A7"></path>
                <path d="M33.164,67.435 C33.469,66.912 35.145,63.997 44.393,47.738 C43.389,46.733 38.044,45.632 38.044,45.632 C36.777,46.898 32.907,64.363 33.164,67.435 L33.164,67.435 Z" id="Shape" fill="#FFDCD2"></path>
                <path d="M36.631,64.017 C35.944,63.329 34.765,62.815 33.67,62.732 C33.204,65.504 32.995,67.578 33.282,67.865 C33.561,68.145 35.411,67.927 37.919,67.446 C37.98,66.233 37.418,64.804 36.631,64.017 L36.631,64.017 Z" id="Shape" fill="#BF392B"></path>
                <path d="M44.394,47.737 C44.379,47.761 81.277,10.885 81.277,10.885 C79.69,9.621 78.031,8.446 76.297,7.379 L38.045,45.631 C47,47.7370017 43.39,46.733 44.394,47.737 Z" id="Shape" fill="#C9574B"></path>
            </g>
            <g id="Fill-21-+-Fill-22-+-Fill-23" transform="translate(56.000000, 43.000000)" sketch:type="MSShapeGroup">
                <path d="M0,0 L33.9318212,0 L33.9318212,30.8377688 L0,30.8377688 L0,0 Z" id="Fill-21" fill="#F3CF11"></path>
                <path d="M2.37209302,22.9941001 L5.77280809,21.0019671 C6.42808332,22.1275785 7.02345804,23.0798857 8.4538095,23.0798857 C9.82698322,23.0798857 10.6910026,22.5617058 10.6910026,20.5418441 L10.6910026,6.80487805 L14.8649788,6.80487805 L14.8649788,20.6025006 C14.8649788,24.7852001 12.3300983,26.688948 8.63260344,26.688948 C5.29451163,26.688948 3.35591345,25.0130953 2.37209302,22.9941001" id="Fill-22" fill="#000000"></path>
                <path d="M17.3953488,22.7904675 L20.7951563,20.8875862 C21.689126,22.2991498 22.8517403,23.3398422 24.909232,23.3398422 C26.6390859,23.3398422 27.7417998,22.5019158 27.7417998,21.3477091 C27.7417998,19.9656073 26.6082281,19.473423 24.7023029,18.6649584 L23.6576744,18.2299646 C20.6472202,16.9917053 18.6496291,15.4319666 18.6496291,12.1426508 C18.6496291,9.11329145 21.0338508,6.80487805 24.7603883,6.80487805 C27.4132546,6.80487805 29.3200874,7.69739524 30.6941687,10.0370034 L27.4441124,12.0559986 C26.7289367,10.8160063 25.9520453,10.3246886 24.7603883,10.3246886 C23.5396886,10.3246886 22.7627972,11.0733632 22.7627972,12.0559986 C22.7627972,13.2656627 23.5396886,13.7569804 25.3258127,14.5082546 L26.3695337,14.9441149 C29.9190924,16.414602 31.9166835,17.9154173 31.9166835,21.2913852 C31.9166835,24.9255766 28.9643147,26.9177096 24.9981751,26.9177096 C21.1246091,26.9177096 18.6160485,25.1292092 17.3953488,22.7904675" id="Fill-23" fill="#000000"></path>
            </g>
        </g>
    </g>
</svg>